<svg width="16.000000" height="16.000000" viewBox="0 0 16 16" fill="none" xmlns="http://www.w3.org/2000/svg" xmlns:xlink="http://www.w3.org/1999/xlink">
	<desc>
			Created with Pixso.
	</desc>
	<defs>
		<clipPath id="clip1_46">
			<rect id="IMAGE" width="16.000000" height="16.000000" fill="white" fill-opacity="0"/>
		</clipPath>
	</defs>
	<g clip-path="url(#clip1_46)">
		<mask id="mask1_49" mask-type="alpha" maskUnits="userSpaceOnUse" x="0.000000" y="0.000000" width="16.000000" height="16.000000">
			<path id="Vector" d="M0 0L16 0L16 16L0 16L0 0Z" fill="#000000" fill-opacity="1.000000" fill-rule="evenodd"/>
		</mask>
		<g mask="url(#mask1_49)">
			<path id="Vector" d="M14.8156 0L1.18127 0C0.528076 0 0 0.515625 0 1.15332L0 14.8438C0 15.4814 0.528076 16 1.18127 16L14.8156 16C15.4688 16 16 15.4814 16 14.8467L16 1.15332C16 0.515625 15.4688 0 14.8156 0ZM4.74683 13.6343L2.37183 13.6343L2.37183 5.99707L4.74683 5.99707L4.74683 13.6343ZM3.55933 4.95605C2.79688 4.95605 2.18127 4.34082 2.18127 3.58105C2.18127 2.82178 2.79688 2.20605 3.55933 2.20605C4.31873 2.20605 4.93433 2.82178 4.93433 3.58105C4.93433 4.3374 4.31873 4.95605 3.55933 4.95605ZM13.6344 13.6343L11.2625 13.6343L11.2625 9.92188C11.2625 9.0376 11.2469 7.89697 10.0281 7.89697C8.7937 7.89697 8.6062 8.8623 8.6062 9.85938L8.6062 13.6343L6.23755 13.6343L6.23755 5.99707L8.51245 5.99707L8.51245 7.04053L8.5437 7.04053C8.85938 6.44043 9.6344 5.80615 10.7875 5.80615C13.1906 5.80615 13.6344 7.3877 13.6344 9.44385L13.6344 13.6343Z" fill="#0A0A0A" fill-opacity="1.000000" fill-rule="nonzero"/>
		</g>
	</g>
</svg>
