<svg width="16.000000" height="16.000000" viewBox="0 0 16 16" fill="none" xmlns="http://www.w3.org/2000/svg" xmlns:xlink="http://www.w3.org/1999/xlink">
	<desc>
			Created with Pixso.
	</desc>
	<defs>
		<clipPath id="clip1_52">
			<rect id="IMAGE" width="16.000000" height="16.000000" fill="white" fill-opacity="0"/>
		</clipPath>
	</defs>
	<g clip-path="url(#clip1_52)">
		<mask id="mask1_57" mask-type="alpha" maskUnits="userSpaceOnUse" x="0.000000" y="0.000000" width="16.000000" height="16.000000">
			<path id="Vector" d="M0 0L16 0L16 16L0 16L0 0Z" fill="#000000" fill-opacity="1.000000" fill-rule="evenodd"/>
		</mask>
		<g mask="url(#mask1_57)">
			<path id="Vector" d="M8 1.44043C10.1375 1.44043 10.3906 1.4502 11.2313 1.4873C12.0125 1.52197 12.4344 1.65332 12.7156 1.7627C13.0875 1.90625 13.3563 2.08105 13.6344 2.35938C13.9156 2.64062 14.0875 2.90625 14.2313 3.27832C14.3406 3.55957 14.4719 3.98438 14.5063 4.7627C14.5438 5.60645 14.5531 5.85938 14.5531 7.99365C14.5531 10.1313 14.5438 10.3843 14.5063 11.2251C14.4719 12.0063 14.3406 12.4282 14.2313 12.7095C14.0875 13.0815 13.9125 13.3501 13.6344 13.6279C13.3531 13.9092 13.0875 14.0815 12.7156 14.2251C12.4344 14.3345 12.0094 14.4658 11.2313 14.5C10.3875 14.5376 10.1344 14.5469 8 14.5469C5.86255 14.5469 5.60938 14.5376 4.7688 14.5C3.98755 14.4658 3.56567 14.3345 3.28442 14.2251C2.91248 14.0815 2.6438 13.9062 2.3656 13.6279C2.08435 13.3467 1.91248 13.0815 1.7688 12.7095C1.65942 12.4282 1.52808 12.0029 1.49377 11.2251C1.4563 10.3813 1.4469 10.1279 1.4469 7.99365C1.4469 5.85645 1.4563 5.60303 1.49377 4.7627C1.52808 3.98145 1.65942 3.55957 1.7688 3.27832C1.91248 2.90625 2.08752 2.6377 2.3656 2.35938C2.64685 2.07812 2.91248 1.90625 3.28442 1.7627C3.56567 1.65332 3.9906 1.52197 4.7688 1.4873C5.60938 1.4502 5.86255 1.44043 8 1.44043ZM8 0C5.82812 0 5.55627 0.00927734 4.70312 0.046875C3.85315 0.0844727 3.2688 0.22168 2.76245 0.418945C2.23438 0.625 1.78748 0.896973 1.34375 1.34375C0.896851 1.7876 0.625 2.23438 0.418701 2.75928C0.221924 3.26855 0.0843506 3.8501 0.046875 4.7002C0.00939941 5.55615 0 5.82812 0 8C0 10.1719 0.00939941 10.4438 0.046875 11.2969C0.0843506 12.147 0.221924 12.7314 0.418701 13.2373C0.625 13.7656 0.896851 14.2124 1.34375 14.6562C1.78748 15.1001 2.23438 15.375 2.7594 15.5781C3.2688 15.7749 3.84998 15.9126 4.69995 15.9502C5.5531 15.9873 5.82495 15.9971 7.99683 15.9971C10.1688 15.9971 10.4406 15.9873 11.2938 15.9502C12.1438 15.9126 12.7281 15.7749 13.2344 15.5781C13.7594 15.375 14.2063 15.1001 14.65 14.6562C15.0938 14.2124 15.3688 13.7656 15.5719 13.2407C15.7688 12.7314 15.9062 12.1499 15.9438 11.2998C15.9813 10.4468 15.9906 10.1748 15.9906 8.00293C15.9906 5.83105 15.9813 5.55957 15.9438 4.70605C15.9062 3.85645 15.7688 3.27197 15.5719 2.76562C15.375 2.23438 15.1031 1.7876 14.6562 1.34375C14.2125 0.899902 13.7656 0.625 13.2406 0.421875C12.7313 0.225098 12.15 0.0874023 11.3 0.0498047C10.4438 0.00927734 10.1719 0 8 0Z" fill="#0A0A0A" fill-opacity="1.000000" fill-rule="nonzero"/>
			<path id="Vector" d="M8 3.89062C5.7312 3.89062 3.89062 5.73145 3.89062 8C3.89062 10.269 5.7312 12.1094 8 12.1094C10.2688 12.1094 12.1094 10.269 12.1094 8C12.1094 5.73145 10.2688 3.89062 8 3.89062ZM8 10.6655C6.52808 10.6655 5.33435 9.47168 5.33435 8C5.33435 6.52832 6.52808 5.33447 8 5.33447C9.47192 5.33447 10.6656 6.52832 10.6656 8C10.6656 9.47168 9.47192 10.6655 8 10.6655Z" fill="#0A0A0A" fill-opacity="1.000000" fill-rule="nonzero"/>
			<path id="Vector" d="M13.2312 3.72803C13.2312 4.25928 12.8 4.6875 12.2719 4.6875C11.7406 4.6875 11.3125 4.25586 11.3125 3.72803C11.3125 3.19678 11.7438 2.76855 12.2719 2.76855C12.8 2.76855 13.2312 3.19971 13.2312 3.72803Z" fill="#0A0A0A" fill-opacity="1.000000" fill-rule="nonzero"/>
		</g>
	</g>
</svg>
