<?xml version="1.0" encoding="utf-8"?><svg viewBox="0 0 16 16" xmlns="http://www.w3.org/2000/svg" xmlns:xlink="http://www.w3.org/1999/xlink"><style>:root>svg{display:none}:root>svg:target{display:block}</style><svg fill="none" viewBox="0 0 16 16" id="In" xmlns="http://www.w3.org/2000/svg"><defs><clipPath id="aa"><path fill="#fff" fill-opacity="0" d="M0 0h16v16H0z"/></clipPath></defs><g clip-path="url(#aa)"><mask id="ab" mask-type="alpha" maskUnits="userSpaceOnUse" x="0" y="0" width="16" height="16"><path d="M0 0h16v16H0V0Z" fill="#000" fill-rule="evenodd"/></mask><g mask="url(#ab)"><path d="M14.816 0H1.18C.528 0 0 .516 0 1.153v13.69C0 15.482.528 16 1.181 16h13.635c.653 0 1.184-.519 1.184-1.153V1.153C16 .516 15.469 0 14.816 0ZM4.746 13.634H2.373V5.997h2.375v7.637ZM3.56 4.956a1.375 1.375 0 1 1-.005-2.75 1.375 1.375 0 0 1 .005 2.75Zm10.075 8.678h-2.372V9.922c0-.884-.015-2.025-1.234-2.025-1.234 0-1.422.965-1.422 1.962v3.775H6.238V5.997h2.274v1.044h.032c.315-.6 1.09-1.235 2.243-1.235 2.404 0 2.847 1.582 2.847 3.638v4.19Z" fill="#0A0A0A"/></g></g></svg><svg fill="none" viewBox="0 0 16 16" id="ins" xmlns="http://www.w3.org/2000/svg"><defs><clipPath id="ba"><path fill="#fff" fill-opacity="0" d="M0 0h16v16H0z"/></clipPath></defs><g clip-path="url(#ba)"><mask id="bb" mask-type="alpha" maskUnits="userSpaceOnUse" x="0" y="0" width="16" height="16"><path d="M0 0h16v16H0V0Z" fill="#000" fill-rule="evenodd"/></mask><g mask="url(#bb)" fill="#0A0A0A"><path d="M8 1.44c2.137 0 2.39.01 3.231.047.781.035 1.203.166 1.485.276.372.143.64.318.918.596.282.282.454.547.597.92.11.28.24.705.275 1.484.038.843.047 1.096.047 3.23 0 2.138-.01 2.391-.047 3.232-.034.781-.165 1.203-.275 1.485a2.47 2.47 0 0 1-.597.918 2.46 2.46 0 0 1-.918.597c-.282.11-.707.24-1.485.275-.844.038-1.097.047-3.231.047-2.137 0-2.39-.01-3.231-.047-.781-.034-1.203-.165-1.485-.275a2.471 2.471 0 0 1-.918-.597 2.457 2.457 0 0 1-.597-.918c-.11-.282-.24-.707-.275-1.485-.038-.844-.047-1.097-.047-3.231 0-2.138.01-2.391.047-3.231.034-.782.165-1.203.275-1.485.143-.372.319-.64.597-.919.28-.28.546-.453.918-.596.282-.11.707-.241 1.485-.276C5.609 1.45 5.863 1.44 8 1.44ZM8 0C5.828 0 5.556.01 4.703.047c-.85.037-1.434.175-1.94.372a3.903 3.903 0 0 0-1.42.925c-.446.444-.718.89-.924 1.415C.222 3.27.084 3.85.047 4.7.009 5.556 0 5.828 0 8c0 2.172.01 2.444.047 3.297.037.85.175 1.434.372 1.94.206.529.478.975.925 1.42.443.443.89.718 1.415.921.51.197 1.091.335 1.941.372.853.037 1.125.047 3.297.047s2.444-.01 3.297-.047c.85-.037 1.434-.175 1.94-.372a3.908 3.908 0 0 0 1.416-.922 3.91 3.91 0 0 0 .922-1.415c.197-.51.334-1.091.372-1.941.037-.853.047-1.125.047-3.297s-.01-2.443-.047-3.297c-.038-.85-.175-1.434-.372-1.94a3.748 3.748 0 0 0-.916-1.422 3.909 3.909 0 0 0-1.415-.922C12.73.225 12.15.087 11.3.05 10.444.01 10.172 0 8 0Z"/><path d="M8 3.89a4.11 4.11 0 0 0 0 8.22 4.11 4.11 0 0 0 0-8.22Zm0 6.775a2.666 2.666 0 1 1 0-5.332 2.666 2.666 0 0 1 0 5.332ZM13.231 3.728a.96.96 0 1 1-1.919 0 .96.96 0 0 1 1.92 0Z"/></g></g></svg></svg>